<?xml version="1.0" standalone="no"?><!-- Generator: Gravit.io --><svg xmlns="http://www.w3.org/2000/svg" xmlns:xlink="http://www.w3.org/1999/xlink" style="isolation:isolate" viewBox="0 0 250 250" width="250" height="250"><defs><clipPath id="_clipPath_Er67ik8kOyth4LW5t7TxckPIBzrTd5kY"><rect width="250" height="250"/></clipPath></defs><g clip-path="url(#_clipPath_Er67ik8kOyth4LW5t7TxckPIBzrTd5kY)"><rect width="250" height="250" style="fill:rgb(0,0,0)" fill-opacity="0"/><defs><filter id="BkzT4mVPcyfmOjV9UQCpId5YIdoj5Lt1" x="-200%" y="-200%" width="400%" height="400%" filterUnits="objectBoundingBox" color-interpolation-filters="sRGB"><feOffset xmlns="http://www.w3.org/2000/svg" in="SourceGraphic" dx="0" dy="3"/><feGaussianBlur xmlns="http://www.w3.org/2000/svg" stdDeviation="2.146804531419514" result="pf_100_offsetBlur"/><feComposite xmlns="http://www.w3.org/2000/svg" in="SourceGraphic" in2="pf_100_offsetBlur" result="pf_100_inverse" operator="out"/><feFlood xmlns="http://www.w3.org/2000/svg" flood-color="#FFFFFF" flood-opacity="0.5" result="pf_100_color"/><feComposite xmlns="http://www.w3.org/2000/svg" in="pf_100_color" in2="pf_100_inverse" operator="in" result="pf_100_shadow"/><feComposite xmlns="http://www.w3.org/2000/svg" in="pf_100_shadow" in2="SourceGraphic" operator="over" result="_out_D8XVcwQpNOKcTRyHCY0b2iPEo7qPTktF"/><feOffset xmlns="http://www.w3.org/2000/svg" in="_out_D8XVcwQpNOKcTRyHCY0b2iPEo7qPTktF" dx="0" dy="-3"/><feGaussianBlur xmlns="http://www.w3.org/2000/svg" stdDeviation="2.146804531419514" result="pf_101_offsetBlur"/><feComposite xmlns="http://www.w3.org/2000/svg" in="_out_D8XVcwQpNOKcTRyHCY0b2iPEo7qPTktF" in2="pf_101_offsetBlur" result="pf_101_inverse" operator="out"/><feFlood xmlns="http://www.w3.org/2000/svg" flood-color="#000000" flood-opacity="0.5" result="pf_101_color"/><feComposite xmlns="http://www.w3.org/2000/svg" in="pf_101_color" in2="pf_101_inverse" operator="in" result="pf_101_shadow"/><feComposite xmlns="http://www.w3.org/2000/svg" in="pf_101_shadow" in2="_out_D8XVcwQpNOKcTRyHCY0b2iPEo7qPTktF" operator="over" result="_out_BKxZAMscV39gCr33gj89ASBZjLlMi9Ug"/><feMerge><feMergeNode in="_out_BKxZAMscV39gCr33gj89ASBZjLlMi9Ug"/></feMerge></filter></defs><g filter="url(#BkzT4mVPcyfmOjV9UQCpId5YIdoj5Lt1)"><path d="M 15 0 L 235 0 C 243.279 0 250 6.721 250 15 L 250 235 C 250 243.279 243.279 250 235 250 L 15 250 C 6.721 250 0 243.279 0 235 L 0 15 C 0 6.721 6.721 0 15 0 Z" style="stroke:none;fill:#747474;stroke-miterlimit:10;"/></g><g id="Group" filter="url(#ChaXI8Qxk4qF4X0OGiSWMDJ6mziRbsI2)"><path d=" M 180.316 77.127 Q 182.554 79.348 184.152 83.154 Q 185.751 86.961 185.751 90.133 L 186 196.395 Q 186 199.568 183.762 201.788 Q 181.525 204.009 178.328 204.009 L 70.921 204.009 Q 67.725 203.565 65.487 201.345 Q 63.249 199.124 63.249 195.952 L 63 54.605 Q 63 51.432 65.238 49.212 Q 67.475 46.991 70.672 46.991 L 142.276 46.991 Q 145.473 46.991 149.309 48.577 Q 153.145 50.164 155.383 52.384 L 180.316 77.127 Z  M 144.834 57.777 L 144.834 87.595 L 174.882 87.595 Q 174.083 85.296 173.124 84.344 L 148.11 59.522 Q 147.151 58.57 144.834 57.777 Z  M 175.771 193.858 L 175.521 97.746 L 142.276 97.746 Q 139.08 97.746 136.842 95.526 Q 134.604 93.305 134.604 90.133 L 134.604 57.142 L 73.229 57.142 L 73.479 193.858 L 175.771 193.858 Z " id="Download" fill="rgb(255,255,255)"/><path d=" M 145.765 123.432 C 142.676 119.23 137.417 118.012 133.107 120.192 C 130.71 117.53 127.373 116.377 124.138 116.861 L 124.138 104.368 C 124.138 98.1 119.425 93 113.633 93 C 107.84 93 103.128 98.1 103.128 104.368 L 103.128 131.707 C 99.972 130.45 96.27 130.842 93.289 133.212 C 88.636 136.91 87.616 143.958 90.983 149.017 L 108.368 175.147 C 110.337 178.105 113.524 179.871 116.893 179.871 L 145.148 179.871 C 150.03 179.871 154.272 176.223 155.379 171.083 L 159.726 150.892 C 159.908 150.046 160 149.181 160 148.313 L 160 134.06 C 160 126.112 152.611 120.61 145.765 123.432 Z  M 101.835 140.456 L 106.134 146.917 C 107.559 149.059 110.735 147.984 110.735 145.342 L 110.735 104.368 C 110.735 100.106 116.53 100.099 116.53 104.368 L 116.53 134.06 C 116.53 135.559 117.666 136.775 119.066 136.775 L 120.153 136.775 C 121.553 136.775 122.689 135.559 122.689 134.06 L 122.689 128.122 C 122.689 123.86 128.484 123.853 128.484 128.122 L 128.484 134.06 C 128.484 135.559 129.62 136.775 131.02 136.775 L 132.107 136.775 C 133.508 136.775 134.643 135.559 134.643 134.06 L 134.643 130.497 C 134.643 126.235 140.439 126.228 140.439 130.497 L 140.439 134.06 C 140.439 135.559 141.574 136.775 142.974 136.775 L 144.061 136.775 C 145.462 136.775 146.597 135.559 146.597 134.06 C 146.597 129.798 152.393 129.791 152.393 134.06 L 152.393 148.313 C 152.393 148.565 152.366 148.818 152.313 149.063 L 147.966 169.254 C 147.653 170.71 146.494 171.727 145.148 171.727 L 116.893 171.727 C 115.979 171.727 115.108 171.239 114.564 170.421 L 97.176 144.292 C 94.893 140.861 99.553 137.027 101.835 140.456 L 101.835 140.456 Z " fill-rule="evenodd" id="Compound Shape" fill="rgb(255,255,255)"/></g><defs><filter id="ChaXI8Qxk4qF4X0OGiSWMDJ6mziRbsI2" x="-200%" y="-200%" width="400%" height="400%" filterUnits="objectBoundingBox" color-interpolation-filters="sRGB"><feGaussianBlur xmlns="http://www.w3.org/2000/svg" in="SourceGraphic" stdDeviation="2.146804531419514"/><feOffset xmlns="http://www.w3.org/2000/svg" dx="-5" dy="5" result="pf_100_offsetBlur"/><feFlood xmlns="http://www.w3.org/2000/svg" flood-color="#000000" flood-opacity="0.5"/><feComposite xmlns="http://www.w3.org/2000/svg" in2="pf_100_offsetBlur" operator="in" result="pf_100_dropShadow"/><feBlend xmlns="http://www.w3.org/2000/svg" in="SourceGraphic" in2="pf_100_dropShadow" mode="normal"/></filter></defs></g></svg>